<?xml version="1.0" standalone="no"?>
<!DOCTYPE svg PUBLIC "-//W3C//DTD SVG 20010904//EN"
 "http://www.w3.org/TR/2001/REC-SVG-20010904/DTD/svg10.dtd">
<svg version="1.0" xmlns="http://www.w3.org/2000/svg"
 width="512.000000pt" height="512.000000pt" viewBox="0 0 512.000000 512.000000"
 preserveAspectRatio="xMidYMid meet">

<g transform="translate(0.000000,512.000000) scale(0.100000,-0.100000)"
fill="#000000" stroke="none">
<path d="M133 4430 c-93 -22 -151 -120 -125 -208 14 -47 31 -66 407 -483 171
-189 347 -384 391 -434 45 -49 212 -235 372 -413 161 -178 292 -327 292 -332
0 -5 -131 -154 -292 -332 -160 -178 -327 -363 -372 -413 -44 -49 -220 -245
-391 -434 -376 -417 -393 -436 -407 -483 -21 -70 14 -153 82 -192 34 -21 48
-21 597 -21 l561 0 41 30 c54 40 1560 1715 1588 1767 29 52 29 104 1 156 -29
52 -1535 1727 -1589 1767 l-41 30 -541 2 c-298 1 -557 -2 -574 -7z"/>
<path d="M2335 4425 c-49 -17 -102 -76 -111 -121 -8 -44 1 -91 25 -129 10 -16
339 -385 730 -819 391 -434 711 -793 711 -796 0 -3 -318 -359 -706 -791 -389
-431 -718 -799 -733 -818 -22 -29 -26 -45 -26 -96 0 -52 4 -67 28 -98 57 -75
30 -72 627 -75 551 -3 588 -1 635 37 19 15 139 145 436 477 64 71 228 253 364
404 136 151 298 331 360 400 62 69 181 201 265 294 83 92 158 183 166 202 18
42 18 86 0 128 -8 18 -119 150 -247 292 -129 143 -254 282 -279 310 -25 28
-202 225 -395 439 -715 794 -664 740 -720 762 -48 18 -1077 17 -1130 -2z"/>
</g>
</svg>
